REM DIRINDEX 1\2,1\3\5,1\3\6,1\4\7,1\4\8
REM DIRNAME cjc139,folder01,folder02,folder03,folder04,folder05,folder06,folder07
TITLE ""
FILE "JE_17.mp3" MP3
  TRACK 01 AUDIO
    TITLE "0:"
    INDEX 01 00:00:00
  TRACK 02 AUDIO
    TITLE "7:cjc139_3742"
    INDEX 01 00:00:17
  TRACK 03 AUDIO
    TITLE "0:"
    INDEX 01 00:03:14
  TRACK 04 AUDIO
    TITLE "8:cjc139_3743"
    INDEX 01 00:06:00
  TRACK 05 AUDIO
    TITLE "0:"
    INDEX 01 00:08:36
  TRACK 06 AUDIO
    TITLE "7:cjc139_3744"
    INDEX 01 00:11:21
  TRACK 07 AUDIO
    TITLE "0:"
    INDEX 01 00:14:11
  TRACK 08 AUDIO
    TITLE "8:cjc139_3745"
    INDEX 01 00:16:69
  TRACK 09 AUDIO
    TITLE "0:"
    INDEX 01 00:19:52
  TRACK 10 AUDIO
    TITLE "7:cjc139_3746"
    INDEX 01 00:22:38
  TRACK 11 AUDIO
    TITLE "0:"
    INDEX 01 00:24:37
  TRACK 12 AUDIO
    TITLE "8:cjc139_3747"
    INDEX 01 00:27:20
  TRACK 13 AUDIO
    TITLE "0:"
    INDEX 01 00:29:29
  TRACK 14 AUDIO
    TITLE "7:cjc139_3748"
    INDEX 01 00:32:17
  TRACK 15 AUDIO
    TITLE "0:"
    INDEX 01 00:35:04
  TRACK 16 AUDIO
    TITLE "8:cjc139_3749"
    INDEX 01 00:37:65
  TRACK 17 AUDIO
    TITLE "0:"
    INDEX 01 00:40:19
  TRACK 18 AUDIO
    TITLE "7:cjc139_3750"
    INDEX 01 00:43:03
  TRACK 19 AUDIO
    TITLE "0:"
    INDEX 01 00:45:59
  TRACK 20 AUDIO
    TITLE "8:cjc139_3751"
    INDEX 01 00:48:44
  TRACK 21 AUDIO
    TITLE "0:"
    INDEX 01 00:50:68
  TRACK 22 AUDIO
    TITLE "7:cjc139_3752"
    INDEX 01 00:53:55
  TRACK 23 AUDIO
    TITLE "0:"
    INDEX 01 00:56:08
  TRACK 24 AUDIO
    TITLE "8:cjc139_3753"
    INDEX 01 00:58:67
  TRACK 25 AUDIO
    TITLE "0:"
    INDEX 01 01:01:54
  TRACK 26 AUDIO
    TITLE "7:cjc139_3754"
    INDEX 01 01:04:43
  TRACK 27 AUDIO
    TITLE "0:"
    INDEX 01 01:07:21
  TRACK 28 AUDIO
    TITLE "8:cjc139_3755"
    INDEX 01 01:10:04
  TRACK 29 AUDIO
    TITLE "0:"
    INDEX 01 01:13:40
  TRACK 30 AUDIO
    TITLE "7:cjc139_3756"
    INDEX 01 01:16:26
  TRACK 31 AUDIO
    TITLE "0:"
    INDEX 01 01:18:51
  TRACK 32 AUDIO
    TITLE "8:cjc139_3757"
    INDEX 01 01:21:35
  TRACK 33 AUDIO
    TITLE "0:"
    INDEX 01 01:23:28
  TRACK 34 AUDIO
    TITLE "7:cjc139_3758"
    INDEX 01 01:26:11
  TRACK 35 AUDIO
    TITLE "0:"
    INDEX 01 01:28:12
  TRACK 36 AUDIO
    TITLE "8:cjc139_3759"
    INDEX 01 01:30:73
  TRACK 37 AUDIO
    TITLE "0:"
    INDEX 01 01:33:21
  TRACK 38 AUDIO
    TITLE "7:cjc139_3760"
    INDEX 01 01:36:05
  TRACK 39 AUDIO
    TITLE "0:"
    INDEX 01 01:39:04
  TRACK 40 AUDIO
    TITLE "8:cjc139_3761"
    INDEX 01 01:41:65
  TRACK 41 AUDIO
    TITLE "0:"
    INDEX 01 01:44:66
  TRACK 42 AUDIO
    TITLE "7:cjc139_3762"
    INDEX 01 01:47:56
  TRACK 43 AUDIO
    TITLE "0:"
    INDEX 01 01:49:47
  TRACK 44 AUDIO
    TITLE "8:cjc139_3763"
    INDEX 01 01:52:32
  TRACK 45 AUDIO
    TITLE "0:"
    INDEX 01 01:54:31
  TRACK 46 AUDIO
    TITLE "7:cjc139_3764"
    INDEX 01 01:57:13
  TRACK 47 AUDIO
    TITLE "0:"
    INDEX 01 01:58:72
  TRACK 48 AUDIO
    TITLE "8:cjc139_3765"
    INDEX 01 02:01:56
  TRACK 49 AUDIO
    TITLE "0:"
    INDEX 01 02:03:22
  TRACK 50 AUDIO
    TITLE "7:cjc139_3766"
    INDEX 01 02:06:10
  TRACK 51 AUDIO
    TITLE "0:"
    INDEX 01 02:09:07
  TRACK 52 AUDIO
    TITLE "8:cjc139_3767"
    INDEX 01 02:11:66
  TRACK 53 AUDIO
    TITLE "0:"
    INDEX 01 02:14:20
  TRACK 54 AUDIO
    TITLE "7:cjc139_3768"
    INDEX 01 02:17:04
  TRACK 55 AUDIO
    TITLE "0:"
    INDEX 01 02:18:33
  TRACK 56 AUDIO
    TITLE "8:cjc139_3769"
    INDEX 01 02:21:20
  TRACK 57 AUDIO
    TITLE "0:"
    INDEX 01 02:22:58
  TRACK 58 AUDIO
    TITLE "7:cjc139_3770"
    INDEX 01 02:25:43
  TRACK 59 AUDIO
    TITLE "0:"
    INDEX 01 02:27:67
  TRACK 60 AUDIO
    TITLE "8:cjc139_3771"
    INDEX 01 02:30:52
  TRACK 61 AUDIO
    TITLE "0:"
    INDEX 01 02:32:43
  TRACK 62 AUDIO
    TITLE "7:cjc139_3772"
    INDEX 01 02:35:28
  TRACK 63 AUDIO
    TITLE "0:"
    INDEX 01 02:38:36
  TRACK 64 AUDIO
    TITLE "8:cjc139_3773"
    INDEX 01 02:41:22
  TRACK 65 AUDIO
    TITLE "0:"
    INDEX 01 02:43:57
  TRACK 66 AUDIO
    TITLE "7:cjc139_3774"
    INDEX 01 02:46:45
  TRACK 67 AUDIO
    TITLE "0:"
    INDEX 01 02:50:10
  TRACK 68 AUDIO
    TITLE "8:cjc139_3775"
    INDEX 01 02:52:71
  TRACK 69 AUDIO
    TITLE "0:"
    INDEX 01 02:56:49
  TRACK 70 AUDIO
    TITLE "7:cjc139_3776"
    INDEX 01 02:59:36
  TRACK 71 AUDIO
    TITLE "0:"
    INDEX 01 03:02:60
  TRACK 72 AUDIO
    TITLE "8:cjc139_3777"
    INDEX 01 03:05:46
  TRACK 73 AUDIO
    TITLE "0:"
    INDEX 01 03:09:19
  TRACK 74 AUDIO
    TITLE "7:cjc139_3778"
    INDEX 01 03:12:07
  TRACK 75 AUDIO
    TITLE "0:"
    INDEX 01 03:15:74
  TRACK 76 AUDIO
    TITLE "8:cjc139_3779"
    INDEX 01 03:18:55
  TRACK 77 AUDIO
    TITLE "0:"
    INDEX 01 03:22:21
  TRACK 78 AUDIO
    TITLE "7:cjc139_3780"
    INDEX 01 03:25:08
  TRACK 79 AUDIO
    TITLE "0:"
    INDEX 01 03:29:08
  TRACK 80 AUDIO
    TITLE "8:cjc139_3781"
    INDEX 01 03:31:67
  TRACK 81 AUDIO
    TITLE "0:"
    INDEX 01 03:35:22
  TRACK 82 AUDIO
    TITLE "7:cjc139_3782"
    INDEX 01 03:38:09
  TRACK 83 AUDIO
    TITLE "0:"
    INDEX 01 03:41:66
  TRACK 84 AUDIO
    TITLE "8:cjc139_3783"
    INDEX 01 03:44:52
  TRACK 85 AUDIO
    TITLE "0:"
    INDEX 01 03:47:35
  TRACK 86 AUDIO
    TITLE "7:cjc139_3784"
    INDEX 01 03:50:22
  TRACK 87 AUDIO
    TITLE "0:"
    INDEX 01 03:52:28
  TRACK 88 AUDIO
    TITLE "8:cjc139_3785"
    INDEX 01 03:55:15
  TRACK 89 AUDIO
    TITLE "0:"
    INDEX 01 03:57:22
  TRACK 90 AUDIO
    TITLE "7:cjc139_3786"
    INDEX 01 04:00:08
  TRACK 91 AUDIO
    TITLE "0:"
    INDEX 01 04:03:44
  TRACK 92 AUDIO
    TITLE "8:cjc139_3787"
    INDEX 01 04:06:27
  TRACK 93 AUDIO
    TITLE "0:"
    INDEX 01 04:09:35
  TRACK 94 AUDIO
    TITLE "7:cjc139_3788"
    INDEX 01 04:12:21
  TRACK 95 AUDIO
    TITLE "0:"
    INDEX 01 04:14:34
  TRACK 96 AUDIO
    TITLE "8:cjc139_3789"
    INDEX 01 04:17:17
  TRACK 97 AUDIO
    TITLE "0:"
    INDEX 01 04:19:39
  TRACK 98 AUDIO
    TITLE "7:cjc139_3790"
    INDEX 01 04:22:24
  TRACK 99 AUDIO
    TITLE "0:"
    INDEX 01 04:24:34
  TRACK 100 AUDIO
    TITLE "8:cjc139_3791"
    INDEX 01 04:27:19
  TRACK 101 AUDIO
    TITLE "0:"
    INDEX 01 04:30:17
  TRACK 102 AUDIO
    TITLE "7:cjc139_3792"
    INDEX 01 04:33:02
  TRACK 103 AUDIO
    TITLE "0:"
    INDEX 01 04:36:14
  TRACK 104 AUDIO
    TITLE "8:cjc139_3793"
    INDEX 01 04:38:74
  TRACK 105 AUDIO
    TITLE "0:"
    INDEX 01 04:41:66
